<?xml version="1.0" encoding="UTF-8"?>
<svg width="13px" height="12px" viewBox="0 0 13 12" version="1.1" xmlns="http://www.w3.org/2000/svg" xmlns:xlink="http://www.w3.org/1999/xlink">
    <title>形状</title>
    <g id="页面-1" stroke="none" stroke-width="1" fill="none" fill-rule="evenodd">
        <g id="iPhone-8" transform="translate(-158.000000, -433.000000)" fill="#4FA7FF" fill-rule="nonzero">
            <g id="bilibili-line" transform="translate(157.000000, 432.000000)">
                <path d="M4.3618,1.19037232 L6.46910001,3.28973221 L8.53025,3.28973221 L10.6382,1.19101967 C10.892182,0.938072726 11.303968,0.938072726 11.55795,1.19101967 C11.8119319,1.44396662 11.8119319,1.85407465 11.55795,2.1070216 L10.3691,3.28973221 L11.725,3.28973221 C12.3283675,3.28973221 12.9070227,3.52844227 13.3336679,3.95334891 C13.7603132,4.37825555 14,4.95455262 14,5.55546136 L14,10.7342709 C14,11.3351796 13.7603132,11.9114767 13.3336679,12.3363833 C12.9070227,12.7612899 12.3283675,13 11.725,13 L3.27500001,13 C2.67163249,13 2.09297734,12.7612899 1.66633208,12.3363833 C1.23968681,11.9114767 1,11.3351796 1,10.7342709 L1,5.55546136 C1,4.95455262 1.23968681,4.37825555 1.66633208,3.95334891 C2.09297734,3.52844227 2.67163249,3.28973221 3.27500001,3.28973221 L4.63025001,3.28973221 L3.44205,2.1057269 C3.27775249,1.94209891 3.213587,1.70360593 3.27372407,1.48008595 C3.33386113,1.25656596 3.50916449,1.08197698 3.73359906,1.02208498 C3.95803364,0.962192976 4.19750248,1.02609698 4.3618,1.18972496 L4.3618,1.19037232 Z M11.725,4.58443458 L3.27500001,4.58443458 C2.77279576,4.58443458 2.35276161,4.96439513 2.30455,5.46224279 L2.30000001,5.55546136 L2.30000001,10.7342709 C2.30000001,11.2344286 2.68151528,11.652751 3.18140001,11.7007662 L3.27500001,11.7052976 L11.725,11.7052976 C12.2272042,11.7052976 12.6472384,11.3253371 12.69545,10.8274894 L12.7,10.7342709 L12.7,5.55546136 C12.7,5.01917808 12.2634776,4.58443458 11.725,4.58443458 Z M4.9,6.52648814 C5.25898509,6.52648814 5.55,6.81631714 5.55,7.17383933 L5.55,8.46854169 C5.54994505,8.82602518 5.25894623,9.11579378 4.9,9.11579378 C4.54105378,9.11579378 4.25005496,8.82602518 4.25000001,8.46854169 L4.25000001,7.17383933 C4.25000001,6.81631714 4.54101491,6.52648814 4.9,6.52648814 L4.9,6.52648814 Z M10.1,6.52648814 C10.4589851,6.52648814 10.75,6.81631714 10.75,7.17383933 L10.75,8.46854169 C10.749945,8.82602518 10.4589462,9.11579378 10.1,9.11579378 C9.74105377,9.11579378 9.45005495,8.82602518 9.45,8.46854169 L9.45,7.17383933 C9.45,6.81631714 9.74101491,6.52648814 10.1,6.52648814 L10.1,6.52648814 Z" id="形状"></path>
            </g>
        </g>
    </g>
</svg>