<?xml version="1.0" encoding="UTF-8"?>
<svg width="12px" height="14px" viewBox="0 0 12 14" version="1.1" xmlns="http://www.w3.org/2000/svg" xmlns:xlink="http://www.w3.org/1999/xlink">
    <!-- Generator: Sketch 53.2 (72643) - https://sketchapp.com -->
    <title>形状</title>
    <desc>Created with Sketch.</desc>
    <g id="页面展示" stroke="none" stroke-width="1" fill="none" fill-rule="evenodd">
        <g id="产品介绍-第2版-3" transform="translate(-185.000000, -466.000000)" fill="#FFFFFF" fill-rule="nonzero">
            <g id="点击-01" transform="translate(183.000000, 465.000000)">
                <g id="分组">
                    <path d="M12.1252431,9.1497005 L12.0372387,9.1497005 C11.8263737,9.1497005 11.6579919,9.24972869 11.4489496,9.35872678 L11.4489496,9.34484819 C11.4489496,8.80809211 11.0217033,8.31348345 10.4726036,8.31348345 L10.3845993,8.31348345 C10.1737342,8.31348345 9.98574967,8.43452139 9.77672339,8.54372734 L9.77672339,8.50433006 C9.77672339,7.96768591 9.36906378,7.47736234 8.81996408,7.47736234 L8.73195975,7.47736234 C8.52109472,7.47736234 8.31352345,7.59413117 8.10448119,7.70333714 L8.10448116,5.26993098 C8.10448116,4.73328683 7.71644025,4.34195216 7.16732455,4.34195216 L7.07935219,4.34195216 C6.53023648,4.34195216 6.01420236,4.73328683 6.01420236,5.26993098 L6.01420236,11.5372018 L5.11153437,10.626795 C4.92353384,10.4447105 4.6914352,10.3442826 4.4266867,10.3442826 C4.16173034,10.3442826 3.92104553,10.4447105 3.73366856,10.626795 L3.67529214,10.6872181 C3.48585258,10.8713492 3.38358592,11.1162872 3.38358592,11.377582 C3.38358592,11.6384451 3.48913036,11.8838148 3.66977589,12.0585603 L6.08973516,14.7146795 C6.24794789,14.8975795 6.47963081,15.0025003 6.72416902,15.0025003 L12.2824005,15.0025003 C12.6747265,15.0025003 13.004407,14.7346819 13.0905406,14.3758372 L13.1211758,14.374606 L13.1211758,10.1597357 C13.1211918,9.62328341 12.6743428,9.1497005 12.1252431,9.1497005 Z M12.6945371,14.1900591 C12.6945371,14.4076556 12.5096065,14.5844477 12.2824165,14.5844477 L6.72416902,14.5844478 C6.60108447,14.5844478 6.48514708,14.5321792 6.40286686,14.4370597 L3.97107561,11.7678614 C3.86329269,11.6633403 3.80389295,11.5245384 3.80389295,11.377566 C3.80389295,11.2301779 3.86329269,11.0917758 3.97067588,10.9872706 L4.03333739,10.9268476 C4.14254334,10.8206956 4.28849239,10.7623192 4.44405092,10.7623192 C4.59960945,10.7623192 4.71084603,10.8206956 4.82025986,10.9268476 L6.43227092,12.5255877 L6.43227092,5.26993098 C6.43227092,4.96393045 6.76070425,4.76000472 7.07936819,4.76000472 L7.16734055,4.76000472 C7.4859885,4.76000472 7.68644459,4.96393045 7.68644459,5.26993098 L7.68644459,8.38696962 L8.13123103,8.39309347 C8.17392209,8.12466747 8.44885569,7.89543089 8.73197572,7.89543089 L8.81998005,7.89543089 C9.13861202,7.89543089 9.35867081,8.1983615 9.35867081,8.50434605 L9.35867081,9.22727989 L9.79365589,9.23135712 C9.83631497,8.96281919 10.1014792,8.731536 10.3845992,8.731536 L10.4726036,8.731536 C10.7912355,8.731536 11.030881,9.03865577 11.030881,9.34484817 L11.030881,10.0425671 L11.4560968,10.0568614 C11.4987558,9.7886433 11.7541187,9.56776905 12.0372387,9.56776905 L12.1252431,9.56776905 C12.443875,9.56776905 12.7031393,9.83517175 12.7031393,10.1413642 L12.6945371,14.1900591 Z M4.34199212,4.55097844 L2.87879217,4.55097844 L2.87879217,4.969031 L4.34199212,4.969031 L4.34199212,4.55097844 Z M7.26839203,0.997499687 L6.85033947,0.997499687 L6.85033947,2.46069964 L7.26839203,2.46069964 L7.26839203,0.997499687 Z M5.57125469,3.12575273 L4.48304848,2.06896523 L4.19175798,2.36884192 L5.27998017,3.42561344 L5.57125469,3.12575273 Z M9.98574966,4.96904698 L11.4489496,4.96904698 L11.4489496,4.55099442 L9.98574966,4.55099442 L9.98574966,4.96904698 Z M10.048619,2.36904978 L9.75734452,2.06896523 L8.66910634,3.12554488 L8.96018898,3.42561342 L10.048619,2.36904978 Z" id="形状"></path>
                </g>
            </g>
        </g>
    </g>
</svg>