<?xml version="1.0" encoding="UTF-8"?>
<svg width="10px" height="10px" viewBox="0 0 10 10" version="1.1" xmlns="http://www.w3.org/2000/svg" xmlns:xlink="http://www.w3.org/1999/xlink">
    <title>形状</title>
    <g id="页面-1" stroke="none" stroke-width="1" fill="none" fill-rule="evenodd">
        <g id="iPhone-8" transform="translate(-159.000000, -327.000000)" fill="#1A8DF4" fill-rule="nonzero">
            <g id="编组-2" transform="translate(45.000000, 263.000000)">
                <g id="知乎" transform="translate(113.000000, 63.000000)">
                    <path d="M6.37343291,6.56001489 C6.37343291,6.56001489 6.37343291,5.7417578 5.97924145,5.69977151 C5.58504999,5.65778521 4.36100385,5.69977151 4.36100385,5.69977151 L4.36100385,3.182038 L6.18669095,3.182038 C6.18669095,3.182038 6.1659494,2.34278203 5.81324104,2.34278203 L2.84646266,2.34278203 L3.3443732,1 C3.3443732,1 2.59748472,1.0419863 2.3277879,1.52452495 C2.05809107,2.0070636 1.20747217,4.41994026 1.20747217,4.41994026 C1.20747217,4.41994026 1.49793321,4.54583037 1.97509087,4.18915891 C2.4522712,3.83249891 2.61822627,3.20302542 2.61822627,3.20302542 L3.48958672,3.16103912 L3.51032827,5.72074746 C3.51032827,5.72074746 1.99584376,5.69977151 1.68464117,5.72074746 C1.37343857,5.74172342 1.20746084,6.58099084 1.20746084,6.58099084 L3.51036227,6.58099084 C3.51036227,6.58099084 3.30286743,8.00769962 2.72199069,9.03579649 C2.12031572,10.0638704 1,10.8821161 1,10.8821161 C1,10.8821161 1.80911313,11.2178116 2.59751872,10.7562259 C3.38589031,10.2736529 3.96681239,8.1965176 3.96681239,8.1965176 L5.81328638,10.5254446 C5.81328638,10.5254446 5.97925278,9.41345537 5.79254483,9.09873581 C5.58504999,8.78401626 4.5062287,7.52516097 4.5062287,7.52516097 L4.02904837,7.94476029 L4.36099251,6.55999196 L6.37343291,6.55999196 L6.37343291,6.56001489 Z M6.85061324,2.27986563 L6.82987169,9.85405357 L7.57676017,9.85405357 L7.84645699,10.7982008 L9.15352601,9.85405357 L11,9.85405357 L11,2.27986563 L6.85065857,2.27986563 L6.85061324,2.27986563 Z M10.1700546,9.01479761 L9.29869419,9.01479761 L8.19913135,9.87504099 L7.95017608,9.01479761 L7.72197369,9.01479761 L7.72197369,3.14007463 L10.1700546,3.14007463 L10.1700546,9.01479761 L10.1700546,9.01479761 Z" id="形状"></path>
                </g>
            </g>
        </g>
    </g>
</svg>